<svg xmlns="http://www.w3.org/2000/svg" viewBox="0 0 180 180">
  <defs>
    <linearGradient id="bg" x1="0" y1="0" x2="1" y2="1">
      <stop offset="0" stop-color="#FB923C"/>
      <stop offset="1" stop-color="#F97316"/>
    </linearGradient>
  </defs>
  <rect width="180" height="180" rx="40" fill="url(#bg)"/>
  <g fill="#FFFBF5" transform="translate(90 100)">
    <path d="M0 32c-15 0-25-10-25-23 0-10 7-20 19-21 4 0 8 2 11 5 3-3 7-5 11-5 12 1 19 11 19 21 0 13-10 23-25 23 0 0-10 0-10 0z"/>
    <ellipse cx="-25" cy="-11" rx="8" ry="10"/>
    <ellipse cx="-10" cy="-24" rx="8" ry="10"/>
    <ellipse cx="10" cy="-24" rx="8" ry="10"/>
    <ellipse cx="25" cy="-11" rx="8" ry="10"/>
  </g>
</svg>
