<svg xmlns="http://www.w3.org/2000/svg" viewBox="0 0 512 512">
  <defs>
    <linearGradient id="bg" x1="0" y1="0" x2="1" y2="1">
      <stop offset="0" stop-color="#FB923C"/>
      <stop offset="1" stop-color="#F97316"/>
    </linearGradient>
  </defs>
  <rect width="512" height="512" rx="112" fill="url(#bg)"/>
  <g fill="#FFFBF5" transform="translate(256 280)">
    <!-- Main paw pad -->
    <path d="M0 90c-44 0-72-30-72-66 0-30 22-56 56-58 12 0 23 5 32 13 9-8 20-13 32-13 34 2 56 28 56 58 0 36-28 66-72 66 0 0-32 0-32 0z"/>
    <!-- Toes -->
    <ellipse cx="-72" cy="-32" rx="22" ry="30"/>
    <ellipse cx="-28" cy="-70" rx="22" ry="30"/>
    <ellipse cx="28" cy="-70" rx="22" ry="30"/>
    <ellipse cx="72" cy="-32" rx="22" ry="30"/>
  </g>
</svg>
